<svg width="6877" height="2074" viewBox="0 0 6877 2074" fill="none" xmlns="http://www.w3.org/2000/svg">
<path d="M570.653 629.728L1332.19 1263.75L1011.99 1321.4L520.088 910.098L570.653 629.728Z" fill="#00C58C"/>
<path d="M309.834 1693.62L986.729 1446.96L1270.39 1610.65L248.248 1981.88L309.834 1693.62Z" fill="#00C58C"/>
<path d="M563.997 330.324L261.549 1977.42L0 2074L292.274 428.218L563.997 330.324Z" fill="url(#paint0_linear)"/>
<path d="M302.599 373.414L312.923 318.61L585.466 219.8L574.322 275.52L302.599 373.414Z" fill="#00C58C"/>
<path d="M323.659 263.806L333.983 209.003L606.525 110.192L595.381 165.912L323.659 263.806Z" fill="#00C58C"/>
<path d="M344.72 154.199L355.044 99.395L627.587 0.583984L616.443 56.304L344.72 154.199Z" fill="#00C58C"/>
<path fill-rule="evenodd" clip-rule="evenodd" d="M812.958 1352.34L1332.2 1263.75L1270.39 1612.14L812.958 1352.34Z" fill="#FED248"/>
<path d="M1563.7 1725V780H2022.7C2092 780 2152.07 786.075 2202.92 798.225C2253.77 810.375 2295.85 827.475 2329.15 849.525C2362.45 871.575 2387.2 897.9 2403.4 928.5C2419.6 959.1 2427.7 992.85 2427.7 1029.75C2427.7 1077.45 2414.2 1118.85 2387.2 1153.95C2360.2 1189.05 2319.7 1215.15 2265.7 1232.25C2333.2 1245.75 2386.07 1272.07 2424.32 1311.22C2462.57 1350.38 2481.7 1400.55 2481.7 1461.75C2481.7 1542.75 2448.17 1606.88 2381.12 1654.12C2314.07 1701.38 2208.1 1725 2063.2 1725H1563.7ZM2063.2 1293H1759.45V1623.75H2063.2C2130.7 1623.75 2182.45 1610.25 2218.45 1583.25C2254.45 1556.25 2272.45 1515.75 2272.45 1461.75C2272.45 1404.15 2254.45 1361.63 2218.45 1334.18C2182.45 1306.73 2130.7 1293 2063.2 1293ZM1759.45 1191.75H2022.7C2153.2 1191.75 2218.45 1137.75 2218.45 1029.75C2218.45 982.05 2202.02 945.375 2169.17 919.725C2136.32 894.075 2087.5 881.25 2022.7 881.25H1759.45V1191.75ZM3128.7 1657.5C3172.8 1657.5 3213.97 1649.85 3252.22 1634.55C3290.47 1619.25 3328.05 1597.65 3364.95 1569.75L3418.95 1650.75C3401.85 1666.05 3381.82 1680 3358.87 1692.6C3335.92 1705.2 3311.17 1715.77 3284.62 1724.32C3258.07 1732.87 3230.4 1739.62 3201.6 1744.57C3172.8 1749.52 3144 1752 3115.2 1752C3051.3 1752 2993.02 1743.67 2940.37 1727.02C2887.72 1710.37 2842.95 1686.08 2806.05 1654.12C2769.15 1622.17 2740.57 1582.8 2720.32 1536C2700.07 1489.2 2689.95 1435.2 2689.95 1374C2689.95 1313.7 2699.62 1259.93 2718.97 1212.68C2738.32 1165.43 2765.32 1125.83 2799.97 1093.88C2834.62 1061.92 2875.8 1037.62 2923.5 1020.97C2971.2 1004.32 3023.85 996 3081.45 996C3135.45 996 3186.3 1004.1 3234 1020.3C3281.7 1036.5 3323.1 1060.13 3358.2 1091.18C3393.3 1122.23 3421.2 1159.8 3441.9 1203.9C3462.6 1248 3472.95 1297.95 3472.95 1353.75V1448.25H2896.5C2907.3 1522.95 2933.17 1576.5 2974.12 1608.9C3015.07 1641.3 3066.6 1657.5 3128.7 1657.5ZM3081.45 1083.75C3055.35 1083.75 3031.05 1088.7 3008.55 1098.6C2986.05 1108.5 2966.47 1124.25 2949.82 1145.85C2933.17 1167.45 2919.67 1195.35 2909.32 1229.55C2898.97 1263.75 2893.35 1305.15 2892.45 1353.75H3270.45C3270.45 1306.95 3265.05 1266.45 3254.25 1232.25C3243.45 1198.05 3229.27 1169.92 3211.72 1147.88C3194.17 1125.83 3173.92 1109.63 3150.97 1099.28C3128.02 1088.93 3104.85 1083.75 3081.45 1083.75ZM3741.95 1468.5V1117.5H3613.7V1023H3741.95V807H3930.95V1023H4140.2V1117.5H3930.95V1468.5C3930.95 1502.7 3934.77 1531.72 3942.42 1555.57C3950.07 1579.42 3960.42 1598.78 3973.47 1613.62C3986.52 1628.47 4001.6 1639.5 4018.7 1646.7C4035.8 1653.9 4053.8 1657.5 4072.7 1657.5C4099.7 1657.5 4125.8 1653.23 4151 1644.68C4176.2 1636.13 4197.35 1626.9 4214.45 1617L4254.95 1704.75C4227.95 1718.25 4197.12 1729.5 4162.47 1738.5C4127.82 1747.5 4093.4 1752 4059.2 1752C3957.5 1752 3879.2 1726.8 3824.3 1676.4C3769.4 1626 3741.95 1556.7 3741.95 1468.5ZM4631.95 780V1725H4442.95V780H4631.95ZM5089.95 780V1725H4900.95V780H5089.95ZM5763.95 1657.5C5808.05 1657.5 5849.22 1649.85 5887.47 1634.55C5925.72 1619.25 5963.3 1597.65 6000.2 1569.75L6054.2 1650.75C6037.1 1666.05 6017.07 1680 5994.12 1692.6C5971.17 1705.2 5946.42 1715.77 5919.87 1724.32C5893.32 1732.87 5865.65 1739.62 5836.85 1744.57C5808.05 1749.52 5779.25 1752 5750.45 1752C5686.55 1752 5628.27 1743.67 5575.62 1727.02C5522.97 1710.37 5478.2 1686.08 5441.3 1654.12C5404.4 1622.17 5375.82 1582.8 5355.57 1536C5335.32 1489.2 5325.2 1435.2 5325.2 1374C5325.2 1313.7 5334.87 1259.93 5354.22 1212.68C5373.57 1165.43 5400.57 1125.83 5435.22 1093.88C5469.87 1061.92 5511.05 1037.62 5558.75 1020.97C5606.45 1004.32 5659.1 996 5716.7 996C5770.7 996 5821.54 1004.1 5869.25 1020.3C5916.95 1036.5 5958.35 1060.13 5993.45 1091.18C6028.55 1122.23 6056.45 1159.8 6077.15 1203.9C6097.85 1248 6108.2 1297.95 6108.2 1353.75V1448.25H5531.75C5542.55 1522.95 5568.42 1576.5 5609.37 1608.9C5650.32 1641.3 5701.85 1657.5 5763.95 1657.5ZM5716.7 1083.75C5690.6 1083.75 5666.3 1088.7 5643.8 1098.6C5621.3 1108.5 5601.72 1124.25 5585.07 1145.85C5568.42 1167.45 5554.92 1195.35 5544.57 1229.55C5534.22 1263.75 5528.6 1305.15 5527.7 1353.75H5905.7C5905.7 1306.95 5900.29 1266.45 5889.5 1232.25C5878.7 1198.05 5864.52 1169.92 5846.97 1147.88C5829.42 1125.83 5809.17 1109.63 5786.22 1099.28C5763.27 1088.93 5740.1 1083.75 5716.7 1083.75ZM6876.7 1023V1117.5H6714.7C6653.5 1117.5 6606.7 1133.93 6574.3 1166.78C6541.9 1199.63 6525.7 1248.45 6525.7 1313.25V1725H6336.7V1313.25C6336.7 1221.45 6365.72 1150.13 6423.77 1099.28C6481.82 1048.43 6565.3 1023 6674.2 1023H6876.7Z" fill="#00C58C"/>
<defs>
<linearGradient id="paint0_linear" x1="432.815" y1="351.514" x2="692.968" y2="1962.06" gradientUnits="userSpaceOnUse">
<stop offset="0.0173913" stop-color="#00C58C"/>
<stop offset="0.965217" stop-color="#00C58C"/>
</linearGradient>
</defs>
</svg>
