<svg width="24" height="24" viewBox="0 0 24 24" fill="none" xmlns="http://www.w3.org/2000/svg">
<path d="M20.9574 9.76675C21.3106 7.20596 19.4266 5.89578 16.836 4.94293L17.6603 1.48883L15.5996 1.01241L14.7753 4.34739C14.2454 4.22829 13.6567 4.10918 13.1268 3.93052L13.9511 0.53598L11.8904 0L11.0661 3.45409C10.5951 3.33499 6.88586 2.38213 6.88586 2.38213L6.35597 4.58561C6.35597 4.58561 7.88676 4.94293 7.82789 4.94293C8.65216 5.18114 8.82879 5.71712 8.76991 6.13399L6.47372 15.5434C6.35597 15.7816 6.12046 16.1985 5.5317 16.0199C5.5317 16.0794 4.0009 15.6625 4.0009 15.6625L3 18.0447C3 18.0447 6.70923 18.9975 7.18024 19.1166L6.29709 22.5707L8.35778 23.1067L9.18205 19.6526C9.77082 19.8313 10.3007 19.9504 10.8306 20.0695L10.0063 23.464L12.067 24L12.9502 20.5459C16.4828 21.201 19.1322 20.9628 20.2509 17.7469C21.134 15.1265 20.192 13.6377 18.3668 12.6849C19.6621 12.5658 20.663 11.6725 20.9574 9.76675ZM16.2472 16.4963C15.5996 19.1166 11.3016 17.6873 9.88857 17.33L11.0072 12.7444C12.4203 13.1017 16.8949 13.7568 16.2472 16.4963ZM16.8949 9.76675C16.3061 12.1489 12.7146 10.9578 11.5371 10.66L12.538 6.49131C13.7156 6.72953 17.4837 7.26551 16.8949 9.76675Z" fill="#BBBDCC"/>
</svg>
